<svg data-v-423bf9ae="" xmlns="http://www.w3.org/2000/svg" viewBox="0 0 295.38113398865994 163" class="iconAbove"><!----><!----><!----><g data-v-423bf9ae="" id="a6d9861f-ccd6-4e98-8743-06ec951c898c" fill="#000000" transform="matrix(4.5283022127189065,0,0,4.5283022127189065,-6.65660555207387,86.56226483379311)"><path d="M1.47 13.78L7.45 13.78L7.45 12.40L3.08 12.40L3.08 9.65L6.66 9.65L6.66 8.29L3.08 8.29L3.08 5.89L7.31 5.89L7.31 4.54L1.47 4.54ZM12.10 13.96C12.87 13.96 13.62 13.48 14.17 12.92L14.21 12.92L14.34 13.78L15.65 13.78L15.65 3.63L14.04 3.63L14.04 6.09L14.10 7.32C13.54 6.79 12.99 6.45 12.18 6.45C10.63 6.45 9.16 7.88 9.16 10.21C9.16 12.57 10.32 13.96 12.10 13.96ZM12.47 12.63C11.42 12.63 10.81 11.76 10.81 10.19C10.81 8.68 11.61 7.78 12.57 7.78C13.06 7.78 13.55 7.97 14.04 8.46L14.04 11.73C13.57 12.33 13.05 12.63 12.47 12.63ZM20.65 16.88C22.85 16.88 24.05 15.78 24.05 13.78L24.05 6.64L22.78 6.64L22.65 7.41L22.60 7.41C22.04 6.79 21.38 6.45 20.61 6.45C18.98 6.45 17.56 7.87 17.56 10.09C17.56 12.25 18.73 13.65 20.48 13.65C21.24 13.65 22.02 13.26 22.53 12.73L22.50 13.89C22.48 14.99 21.81 15.62 20.65 15.62C20.02 15.62 19.25 15.44 18.56 14.74L17.95 15.79C18.79 16.65 19.82 16.88 20.65 16.88ZM20.87 12.35C19.85 12.35 19.18 11.48 19.18 10.07C19.18 8.68 20.02 7.78 20.94 7.78C21.46 7.78 21.95 7.97 22.44 8.46L22.44 11.44C21.95 12.05 21.43 12.35 20.87 12.35ZM28.49 13.96C29.43 13.96 30.34 13.45 31.07 12.88L31.12 12.88L31.25 13.78L32.55 13.78L32.55 9.52C32.55 7.56 31.51 6.45 29.61 6.45C28.42 6.45 27.36 6.94 26.75 7.46L27.34 8.53C27.83 8.12 28.53 7.76 29.30 7.76C30.44 7.76 30.90 8.39 30.95 9.21C27.55 9.48 26.19 10.26 26.19 11.87C26.19 13.10 27.16 13.96 28.49 13.96ZM28.98 12.68C28.29 12.68 27.75 12.40 27.75 11.75C27.75 10.95 28.48 10.40 30.95 10.22L30.95 11.79C30.32 12.35 29.67 12.68 28.98 12.68ZM35.43 13.78L37.04 13.78L37.04 9.79C37.74 8.40 38.67 7.88 39.61 7.88C40.14 7.88 40.40 7.95 40.85 8.11L41.20 6.75C40.78 6.55 40.42 6.45 39.86 6.45C38.67 6.45 37.63 7.11 36.93 8.27L36.89 8.27L36.75 6.64L35.43 6.64ZM51.63 13.78L53.24 13.78L53.24 10.36L54.71 10.36C56.69 10.36 58.18 9.42 58.18 7.38C58.18 5.24 56.71 4.54 54.71 4.54L51.63 4.54ZM53.24 9.07L53.24 5.82L54.57 5.82C55.92 5.82 56.59 6.22 56.59 7.38C56.59 8.51 55.94 9.07 54.57 9.07ZM62.19 13.78L63.81 13.78L63.81 5.89L66.70 5.89L66.70 4.54L59.32 4.54L59.32 5.89L62.19 5.89Z"></path></g><defs data-v-423bf9ae=""><linearGradient data-v-423bf9ae="" gradientTransform="rotate(25)" id="cb07ca90-f814-4837-a5ea-06b8bd8214d7" x1="0%" y1="0%" x2="100%" y2="0%"><stop data-v-423bf9ae="" offset="0%" style="stop-color: rgb(13, 124, 233); stop-opacity: 1;"></stop><stop data-v-423bf9ae="" offset="100%" style="stop-color: rgb(21, 207, 241); stop-opacity: 1;"></stop></linearGradient></defs><g data-v-423bf9ae="" id="1a0b8dd1-55c1-4f0d-865b-a7d0327ad21d" transform="matrix(1.5936819485576184,0,0,1.5936819485576184,68.31590257211909,-33.92089389217253)" stroke="none" fill="url(#cb07ca90-f814-4837-a5ea-06b8bd8214d7)"><path stroke-linecap="round" stroke-linejoin="round" stroke-miterlimit="10" d="M76.972 30.135a2.792 2.792 0 0 1 2.792-2.789h.003c3.081 0 5.58 2.5 5.58 5.581v22.331a5.578 5.578 0 0 1-5.583 5.573 2.79 2.79 0 0 1-2.792-2.788V30.135z"></path><path stroke="#000" stroke-linecap="round" stroke-linejoin="round" stroke-miterlimit="10" d="M71.392 66.415c3.084 0 5.584-2.5 5.584-5.584V27.347c0-3.08-2.5-5.583-5.584-5.583a2.792 2.792 0 0 0-2.788 2.792v39.068a2.792 2.792 0 0 0 2.788 2.791zM23.028 58.046a2.79 2.79 0 0 1-2.792 2.785h-.006a5.578 5.578 0 0 1-5.577-5.577v-22.33c0-3.077 2.5-5.58 5.583-5.58a2.794 2.794 0 0 1 2.792 2.792v27.91z"></path><path stroke="#000" stroke-linecap="round" stroke-linejoin="round" stroke-miterlimit="10" d="M28.605 21.764a5.585 5.585 0 0 0-5.583 5.58v33.487c0 3.084 2.5 5.584 5.583 5.584a2.794 2.794 0 0 0 2.792-2.789V24.559a2.795 2.795 0 0 0-2.792-2.795zM10 40.369h4.653v7.444H10zM85.347 40.369H90v7.444h-4.653zM60.118 47.813l.259 1.647-.256-1.647zM60.118 47.813h8.486v-7.444h-9.637z"></path><path stroke="#000" stroke-linecap="round" stroke-linejoin="round" stroke-miterlimit="10" d="M65.293 47.813v2.51c0 .638-.123 1.249-.36 1.802a4.642 4.642 0 0 1-1.021 1.534v.013a4.748 4.748 0 0 1-1.533 1.019l-6.403 2.652c-.577.243-1.1.59-1.534 1.024v.01a4.732 4.732 0 0 0-1.38 3.34v16.52H36.617V57.07c-2.643-6.371-2.448-13.213 0-19.121a2.878 2.878 0 0 1 4.076 0v-1.618a4.324 4.324 0 0 1 6.118 0v-1.018a4.323 4.323 0 0 1 6.119 0v.859a3.782 3.782 0 0 1 5.354 0l.661 4.196 1.174 7.444h5.174z"></path><path stroke="#000" stroke-linecap="round" stroke-linejoin="round" stroke-miterlimit="10" d="M58.967 40.369l-.681-4.4c0-2.75 2.228-4.98 4.977-4.98v-.003c0 3.311.636 6.462 1.738 9.384h-6.034zM35.764 40.369h-4.368v7.444h3.33a24.996 24.996 0 0 1 1.038-7.444z"></path></g><!----></svg>